<svg xmlns="http://www.w3.org/2000/svg" xmlns:xlink="http://www.w3.org/1999/xlink" viewBox="0 0 47.56 50.29"><defs><style>.cls-1{fill:url(#未命名的渐变_190);}.cls-2{fill:url(#未命名的渐变_132);}</style><linearGradient id="未命名的渐变_190" x1="36.24" y1="46.68" x2="25.48" y2="31.26" gradientUnits="userSpaceOnUse"><stop offset="0.12" stop-color="#b52cad"/><stop offset="0.93" stop-color="#ec35c1"/></linearGradient><linearGradient id="未命名的渐变_132" x1="13.74" y1="12.31" x2="30.75" y2="26.61" gradientUnits="userSpaceOnUse"><stop offset="0" stop-color="#461483"/><stop offset="0.41" stop-color="#711d93"/></linearGradient></defs><title>资源 1</title><g id="图层_2" data-name="图层 2"><g id="Layer_1" data-name="Layer 1"><path class="cls-1" d="M37.92,15.79c-3.71,0-7,1.46-9.48,5.81a.39.39,0,0,0,.34.58h6.77a.49.49,0,0,1,.49.49v4.95a.49.49,0,0,1-.49.49H26.41a1,1,0,0,0-.86.57c-4,9.19-11.13,11.18-15.22,11.52A20.4,20.4,0,0,1,4,39.66a.26.26,0,0,0-.28.41C8.58,46.49,15,50.29,25,50.29c11.8,0,22.59-10.88,22.59-22.48C47.56,19.74,43,15.79,37.92,15.79Z"/><path class="cls-2" d="M43.8,10.11C38.91,3.75,32.55,0,22.59,0,10.79,0,0,10.88,0,22.48c0,8.07,4.59,12,9.64,12,3.71,0,7-1.41,9.48-5.73a.4.4,0,0,0-.35-.59H12a.49.49,0,0,1-.5-.49V22.67a.49.49,0,0,1,.5-.49h9.15a1,1,0,0,0,.86-.57c4-9.19,11.13-11.17,15.22-11.51a19.91,19.91,0,0,1,6.24.5A.31.31,0,0,0,43.8,10.11Z"/></g></g></svg>