<?xml version="1.0" encoding="utf-8"?>
<svg viewBox="113.051 67.9 217.6 217.6" xmlns="http://www.w3.org/2000/svg">
  <defs>
    <linearGradient gradientUnits="userSpaceOnUse" x1="228.36" y1="143.2" x2="228.36" y2="266.6" id="gradient-1" gradientTransform="matrix(0, 0.552473, -0.552473, 0, 334.570593, 80.749719)">
      <stop offset="0" style="stop-color: rgb(255, 90, 90);"/>
      <stop offset="1" style="stop-color: rgb(244, 187, 59);"/>
    </linearGradient>
    <linearGradient gradientUnits="userSpaceOnUse" x1="215.211" y1="86.7" x2="215.211" y2="210" id="gradient-0" spreadMethod="pad" gradientTransform="matrix(0, 0.545287, -0.545287, 0, 301.684659, 31.221024)">
      <stop offset="0" style="stop-color: rgb(22, 130, 254);"/>
      <stop offset="1" style="stop-color: rgb(96, 216, 164);"/>
    </linearGradient>
  </defs>
  <path d="M 221.851 285.5 C 281.94 285.5 330.651 236.789 330.651 176.7 C 330.651 116.612 281.94 67.9 221.851 67.9 C 161.762 67.9 113.051 116.612 113.051 176.7 C 113.051 236.789 161.762 285.5 221.851 285.5 Z" fill="white"/>
  <path d="M 272.551 143.2 C 259.251 143.2 247.451 148.4 238.551 164 C 238.051 164.9 238.751 166.1 239.751 166.1 L 263.951 166.1 C 264.951 166.1 265.651 166.9 265.651 167.8 L 265.651 185.5 C 265.651 186.5 264.851 187.2 263.951 187.2 L 231.251 187.2 C 229.951 187.2 228.751 188 228.151 189.2 C 213.851 222.1 188.251 229.2 173.651 230.4 C 166.051 231 158.251 230.3 150.851 228.5 C 149.951 228.3 149.351 229.3 149.851 230 C 167.351 253 190.251 266.6 226.151 266.6 C 268.451 266.6 307.051 227.6 307.051 186.1 C 306.951 157.4 290.551 143.2 272.551 143.2 Z" style="fill: url('#gradient-1');"/>
  <path d="M 293.551 122.9 C 276.051 100.1 253.251 86.7 217.551 86.7 C 175.251 86.7 136.651 125.7 136.651 167.2 C 136.651 196.1 153.051 210 171.151 210 C 184.451 210 196.251 204.9 205.051 189.5 C 205.551 188.6 204.851 187.4 203.851 187.4 L 179.551 187.4 C 178.551 187.4 177.851 186.6 177.851 185.7 L 177.851 168 C 177.851 167 178.651 166.3 179.551 166.3 L 212.351 166.3 C 213.651 166.3 214.851 165.5 215.451 164.3 C 229.751 131.4 255.351 124.3 269.951 123.1 C 277.351 122.5 285.051 123.2 292.351 124.9 C 293.451 124.9 294.151 123.7 293.551 122.9 Z" style="fill: url('#gradient-0');"/>
</svg>