<svg xmlns="http://www.w3.org/2000/svg" xmlns:xlink="http://www.w3.org/1999/xlink" viewBox="0 0 61.16 60.15"><defs><style>.cls-1{fill:url(#linear-gradient);}.cls-2{fill:url(#未命名的渐变_192);}.cls-3{fill:#1682fe;}.cls-4{fill:#60d8a4;}.cls-5{fill:#f4bb3b;}.cls-6{fill:#ff5a5a;}.cls-7{fill:#3a3a3a;}</style><linearGradient id="linear-gradient" y1="20.59" x2="52.46" y2="20.59" gradientUnits="userSpaceOnUse"><stop offset="0" stop-color="#2d4af7"/><stop offset="0.77" stop-color="#1289ef"/><stop offset="1" stop-color="#0a9ced"/></linearGradient><linearGradient id="未命名的渐变_192" x1="42.86" y1="55.4" x2="28" y2="33.82" gradientUnits="userSpaceOnUse"><stop offset="0.26" stop-color="#ffcf58"/><stop offset="0.7" stop-color="#fcb81f"/></linearGradient></defs><title>fcvx</title><g id="图层_2" data-name="图层 2"><g id="Layer_1" data-name="Layer 1"><path class="cls-1" d="M52.38,12.09C46.54,4.49,38.94,0,27,0,12.9,0,0,13,0,26.89c0,9.65,5.49,14.29,11.53,14.29,4.43,0,8.39-1.69,11.33-6.86a.47.47,0,0,0-.41-.7h-8.1a.58.58,0,0,1-.59-.59V27.12a.58.58,0,0,1,.59-.59h11a1.12,1.12,0,0,0,1-.68c4.8-11,13.31-13.37,18.21-13.78a24.07,24.07,0,0,1,7.46.61A.37.37,0,0,0,52.38,12.09Z"/><path class="cls-2" d="M38.17,48.75A13.77,13.77,0,0,1,51.94,35a13.58,13.58,0,0,1,4.79.88,22.53,22.53,0,0,0,.15-2.6c0-9.65-5.48-14.37-11.53-14.37-4.43,0-8.39,1.74-11.34,6.94a.48.48,0,0,0,.42.7h8.09a.59.59,0,0,1,.59.59V33a.59.59,0,0,1-.59.59H31.59a1.14,1.14,0,0,0-1,.68c-4.8,11-13.31,13.37-18.2,13.78a23.93,23.93,0,0,1-7.63-.65.32.32,0,0,0-.33.5c5.86,7.68,13.48,12.22,25.46,12.22a25.07,25.07,0,0,0,11.33-2.8A13.69,13.69,0,0,1,38.17,48.75Z"/><rect class="cls-3" x="53.38" y="42.24" width="1.49" height="2.24"/><rect class="cls-3" x="49.11" y="38.08" width="1.49" height="2.24"/><rect class="cls-4" x="44.85" y="40.22" width="1.49" height="2.24"/><rect class="cls-5" x="42.71" y="48.75" width="1.5" height="6.4"/><rect class="cls-4" x="42.71" y="42.34" width="1.5" height="6.4"/><rect class="cls-3" x="55.5" y="44.38" width="1.49" height="2.24"/><rect class="cls-6" x="55.5" y="50.87" width="1.49" height="2.24"/><rect class="cls-6" x="53.38" y="53.01" width="1.49" height="2.24"/><rect class="cls-6" x="49.11" y="57.17" width="1.49" height="2.24"/><rect class="cls-5" x="44.85" y="55.03" width="1.49" height="2.24"/><path class="cls-7" d="M61.16,46.61V42.34H59V40.22H54.76V38.08H50.49v2.14H46.23v2.14H44.09V55.15h2.14v2.14h4.26v2.14h4.27V57.29H59V55.15h2.14V50.87H56.9V53H54.76v2.14H50.49V53H48.37V44.48h2.14V42.34h4.26v2.14h2.14v2.14h4.25Z"/></g></g></svg>