<?xml version="1.0" encoding="UTF-8" standalone="no"?>
<!DOCTYPE svg PUBLIC "-//W3C//DTD SVG 1.1//EN" "http://www.w3.org/Graphics/SVG/1.1/DTD/svg11.dtd">
<svg xmlns="http://www.w3.org/2000/svg" version="1.1" viewBox="0.00 0.00 1000.00 252.00">
<g stroke-width="2.00" fill="none" stroke-linecap="butt">
<path stroke="#008ccb" vector-effect="non-scaling-stroke" d="
  M 170.90 75.08
  L 161.71 65.69"
/>
<path stroke="#008ccb" vector-effect="non-scaling-stroke" d="
  M 122.99 24.86
  Q 116.72 15.06 108.36 6.73"
/>
<path stroke="#0096c0" vector-effect="non-scaling-stroke" d="
  M 102.10 31.57
  L 88.11 18.41"
/>
<path stroke="#0096c0" vector-effect="non-scaling-stroke" d="
  M 141.01 81.29
  L 130.94 69.05"
/>
<path stroke="#15a2b0" vector-effect="non-scaling-stroke" d="
  M 59.06 56.40
  L 47.37 41.92"
/>
<path stroke="#15a2b0" vector-effect="non-scaling-stroke" d="
  M 162.91 176.52
  Q 128.52 138.99 94.09 102.04
  Q 82.66 89.78 70.42 78.14"
/>
<path stroke="#3daca1" vector-effect="non-scaling-stroke" d="
  M 45.02 64.50
  L 33.01 50.19"
/>
<path stroke="#3daca1" vector-effect="non-scaling-stroke" d="
  M 144.46 179.01
  L 130.46 163.83"
/>
<path stroke="#5cb495" vector-effect="non-scaling-stroke" d="
  M 28.37 76.98
  L 14.82 60.71"
/>
<path stroke="#5cb495" vector-effect="non-scaling-stroke" d="
  M 119.09 181.77
  L 108.17 168.40"
/>
<path stroke="#75bc86" vector-effect="non-scaling-stroke" d="
  M 28.32 115.56
  Q 20.52 108.70 13.98 101.41
  Q 11.91 99.10 10.04 96.51"
/>
<path stroke="#75bc86" vector-effect="non-scaling-stroke" d="
  M 95.75 184.28
  L 84.41 173.27"
/>
<path stroke="#8bc575" vector-effect="non-scaling-stroke" d="
  M 28.34 145.26
  Q 17.89 137.16 10.05 126.14"
/>
<path stroke="#8bc575" vector-effect="non-scaling-stroke" d="
  M 60.61 188.03
  L 52.99 179.69"
/>
<path stroke="#8bc575" vector-effect="non-scaling-stroke" d="
  M 85.23 210.71
  C 95.90 224.48 108.12 237.11 119.65 250.26"
/>
<path stroke="#75bc86" vector-effect="non-scaling-stroke" d="
  M 134.60 220.45
  L 147.33 234.30"
/>
<path stroke="#5cb495" vector-effect="non-scaling-stroke" d="
  M 159.92 227.04
  L 146.75 213.42"
/>
<path stroke="#3daca1" vector-effect="non-scaling-stroke" d="
  M 181.11 214.81
  L 168.70 200.75"
/>
<path stroke="#15a2b0" vector-effect="non-scaling-stroke" d="
  M 199.33 204.30
  L 186.95 190.22"
/>
<path stroke="#0096c0" vector-effect="non-scaling-stroke" d="
  M 226.61 175.82
  Q 219.29 170.69 212.95 163.46
  Q 211.15 161.41 208.33 160.77"
/>
<path stroke="#008ccb" vector-effect="non-scaling-stroke" d="
  M 226.67 138.20
  Q 216.92 128.16 208.33 117.01"
/>
</g>
<path fill="#0087d0" d="
  M 170.90 75.08
  L 161.71 65.69
  L 187.79 62.83
  A 0.29 0.29 0.0 0 0 187.90 62.30
  L 122.99 24.86
  Q 116.72 15.06 108.36 6.73
  L 118.14 1.11
  A 0.55 0.53 44.0 0 1 118.67 1.11
  L 226.29 63.25
  A 0.18 0.18 0.0 0 1 226.23 63.58
  L 170.90 75.08
  Z"
/>
<path fill="#0091c6" d="
  M 108.36 6.73
  Q 116.72 15.06 122.99 24.86
  L 118.73 22.56
  A 0.90 0.89 44.1 0 0 117.84 22.57
  L 102.10 31.57
  L 88.11 18.41
  L 108.36 6.73
  Z"
/>
<path fill="#009bb9" d="
  M 102.10 31.57
  L 59.06 56.40
  L 47.37 41.92
  L 88.11 18.41
  L 102.10 31.57
  Z"
/>
<path fill="#2aa8a6" d="
  M 47.37 41.92
  L 59.06 56.40
  L 45.02 64.50
  L 33.01 50.19
  L 47.37 41.92
  Z"
/>
<path fill="#4fb09b" d="
  M 33.01 50.19
  L 45.02 64.50
  L 28.91 73.83
  A 0.94 0.92 -14.5 0 0 28.45 74.59
  L 28.37 76.98
  L 14.82 60.71
  L 33.01 50.19
  Z"
/>
<path fill="#69b78e" d="
  M 14.82 60.71
  L 28.37 76.98
  L 28.32 115.56
  Q 20.52 108.70 13.98 101.41
  Q 11.91 99.10 10.04 96.51
  L 10.08 63.98
  A 0.88 0.87 75.3 0 1 10.52 63.22
  L 14.82 60.71
  Z"
/>
<path fill="#0091c6" d="
  M 161.71 65.69
  L 170.90 75.08
  L 141.01 81.29
  L 130.94 69.05
  L 161.71 65.69
  Z"
/>
<path fill="#009bb9" d="
  M 130.94 69.05
  L 141.01 81.29
  Q 121.23 85.46 101.51 89.50
  C 96.10 90.60 94.86 96.90 99.26 100.24
  Q 126.67 121.03 161.43 147.26
  Q 168.01 152.23 169.85 155.43
  Q 172.82 160.62 171.18 166.87
  Q 169.55 173.12 162.91 176.52
  Q 128.52 138.99 94.09 102.04
  Q 82.66 89.78 70.42 78.14
  Q 73.86 75.33 77.69 74.91
  Q 104.33 71.94 130.94 69.05
  Z"
/>
<path fill="#2aa8a6" d="
  M 70.42 78.14
  Q 82.66 89.78 94.09 102.04
  Q 128.52 138.99 162.91 176.52
  Q 153.86 178.57 144.46 179.01
  L 130.46 163.83
  C 133.70 163.17 138.17 162.98 139.52 159.34
  Q 141.07 155.20 137.83 152.63
  Q 133.34 149.06 75.45 105.37
  Q 69.17 100.62 67.47 98.05
  C 63.26 91.67 64.35 83.15 70.42 78.14
  Z"
/>
<path fill="#0087d0" d="
  M 226.67 138.20
  Q 216.92 128.16 208.33 117.01
  L 208.35 86.61
  A 0.67 0.67 0.0 0 1 208.89 85.95
  L 226.38 82.29
  A 0.25 0.24 -6.0 0 1 226.68 82.52
  L 226.67 138.20
  Z"
/>
<path fill="#595656" d="
  M 401.13 84.33
  A 0.30 0.29 -80.8 0 1 401.40 84.71
  L 396.79 100.53
  A 0.69 0.69 0.0 0 1 396.13 101.02
  Q 348.25 100.95 340.78 101.07
  C 330.35 101.24 329.98 117.43 341.00 117.73
  Q 346.35 117.88 376.49 117.82
  C 397.18 117.77 408.82 141.37 396.25 157.84
  Q 389.01 167.32 375.97 167.44
  Q 357.56 167.61 314.79 167.46
  A 0.38 0.37 -81.7 0 1 314.44 166.98
  L 319.09 151.04
  A 0.30 0.30 0.0 0 1 319.38 150.82
  Q 372.24 150.82 376.25 150.82
  C 385.14 150.81 388.47 139.49 380.50 135.01
  Q 378.73 134.02 374.46 134.04
  Q 347.86 134.17 340.28 133.98
  C 320.29 133.48 309.08 110.26 321.27 94.23
  Q 328.81 84.32 342.01 84.32
  Q 399.67 84.31 401.13 84.33
  Z"
/>
<path fill="#595656" d="
  M 774.57 127.05
  C 782.31 135.20 784.08 144.93 777.74 154.50
  C 771.67 163.65 759.68 167.58 748.74 167.58
  Q 736.46 167.57 696.85 167.57
  A 0.26 0.26 0.0 0 1 696.59 167.31
  Q 696.04 139.16 696.29 117.00
  Q 696.31 115.25 696.32 113.75
  Q 696.38 107.30 696.62 84.87
  A 0.60 0.60 0.0 0 1 697.22 84.28
  Q 716.48 84.39 743.28 84.27
  Q 755.28 84.22 760.54 85.80
  C 772.86 89.51 783.60 99.66 781.22 113.68
  Q 780.11 120.17 774.57 125.96
  A 0.80 0.79 -45.3 0 0 774.57 127.05
  Z
  M 713.82 100.95
  L 713.76 117.91
  A 0.59 0.59 0.0 0 0 714.35 118.51
  L 753.40 118.64
  A 9.16 8.71 0.2 0 0 762.59 109.97
  L 762.59 109.25
  A 9.16 8.71 0.2 0 0 753.46 100.50
  L 714.41 100.37
  A 0.59 0.59 0.0 0 0 713.82 100.95
  Z
  M 713.64 153.19
  Q 720.47 153.18 750.78 153.19
  C 755.98 153.20 759.39 152.44 761.59 148.10
  C 764.47 142.37 760.42 135.01 754.07 134.91
  Q 743.43 134.74 714.34 134.84
  A 0.58 0.58 0.0 0 0 713.76 135.41
  Q 713.71 139.84 713.80 150.09
  C 713.80 151.04 713.05 151.74 713.01 152.53
  A 0.63 0.63 0.0 0 0 713.64 153.19
  Z"
/>
<path fill="#595656" d="
  M 524.90 151.87
  L 521.00 167.41
  A 0.36 0.36 0.0 0 1 520.65 167.68
  L 442.79 167.68
  A 0.36 0.36 0.0 0 1 442.43 167.32
  L 442.43 85.18
  A 0.36 0.36 0.0 0 1 442.79 84.82
  L 525.18 84.82
  A 0.36 0.36 0.0 0 1 525.53 85.27
  L 521.58 100.98
  A 0.36 0.36 0.0 0 1 521.23 101.25
  L 459.43 101.25
  A 0.36 0.36 0.0 0 0 459.07 101.61
  L 459.07 117.82
  A 0.36 0.36 0.0 0 0 459.43 118.18
  L 521.08 118.18
  A 0.36 0.36 0.0 0 1 521.43 118.61
  L 518.14 134.21
  A 0.36 0.36 0.0 0 1 517.79 134.50
  L 459.43 134.50
  A 0.36 0.36 0.0 0 0 459.07 134.86
  L 459.07 151.06
  A 0.36 0.36 0.0 0 0 459.43 151.42
  L 524.55 151.42
  A 0.36 0.36 0.0 0 1 524.90 151.87
  Z"
/>
<path fill="#595656" d="
  M 650.66 85.58
  L 646.03 101.43
  A 0.77 0.76 -82.2 0 1 645.31 101.98
  Q 621.26 102.05 615.31 101.95
  Q 603.37 101.74 599.02 103.41
  C 578.19 111.42 578.14 141.72 599.44 149.38
  Q 603.74 150.92 614.75 150.64
  Q 615.64 150.61 650.47 150.62
  A 0.29 0.29 0.0 0 1 650.75 150.99
  L 646.03 167.15
  A 0.77 0.77 0.0 0 1 645.29 167.71
  Q 622.15 167.64 618.86 167.70
  Q 602.68 167.99 596.74 166.38
  C 575.59 160.64 564.21 140.44 567.19 118.95
  C 570.16 97.43 586.65 84.86 607.75 84.83
  Q 617.72 84.82 650.08 84.81
  A 0.60 0.60 0.0 0 1 650.66 85.58
  Z"
/>
<rect fill="#595656" x="839.37" y="85.00" width="16.70" height="82.68" rx="0.39"/>
<path fill="#595656" d="
  M 984.77 102.12
  L 961.05 102.12
  A 0.37 0.37 0.0 0 0 960.68 102.49
  L 960.68 167.31
  A 0.37 0.37 0.0 0 1 960.31 167.68
  L 944.25 167.68
  A 0.37 0.37 0.0 0 1 943.88 167.31
  L 943.88 102.49
  A 0.37 0.37 0.0 0 0 943.51 102.12
  L 913.49 102.12
  A 0.37 0.37 0.0 0 1 913.14 101.65
  L 917.92 85.27
  A 0.37 0.37 0.0 0 1 918.28 85.00
  L 989.56 85.00
  A 0.37 0.37 0.0 0 1 989.91 85.47
  L 985.13 101.85
  A 0.37 0.37 0.0 0 1 984.77 102.12
  Z"
/>
<path fill="#81c07e" d="
  M 28.32 115.56
  L 28.34 145.26
  Q 17.89 137.16 10.05 126.14
  L 10.04 96.51
  Q 11.91 99.10 13.98 101.41
  Q 20.52 108.70 28.32 115.56
  Z"
/>
<path fill="#0091c6" d="
  M 226.67 138.20
  L 226.61 175.82
  Q 219.29 170.69 212.95 163.46
  Q 211.15 161.41 208.33 160.77
  L 208.33 117.01
  Q 216.92 128.16 226.67 138.20
  Z"
/>
<path fill="#95c96c" d="
  M 28.34 145.26
  L 28.35 165.65
  A 0.72 0.71 84.0 0 1 27.79 166.35
  L 10.67 169.93
  A 0.51 0.50 -5.7 0 1 10.06 169.44
  L 10.05 126.14
  Q 17.89 137.16 28.34 145.26
  Z"
/>
<path fill="#009bb9" d="
  M 226.61 175.82
  L 226.60 188.02
  A 0.87 0.86 75.0 0 1 226.17 188.77
  L 199.33 204.30
  L 186.95 190.22
  L 207.83 178.18
  A 1.00 0.99 74.8 0 0 208.33 177.30
  L 208.33 160.77
  Q 211.15 161.41 212.95 163.46
  Q 219.29 170.69 226.61 175.82
  Z"
/>
<path fill="#4fb09b" d="
  M 130.46 163.83
  L 144.46 179.01
  L 119.09 181.77
  L 108.17 168.40
  L 130.46 163.83
  Z"
/>
<path fill="#69b78e" d="
  M 108.17 168.40
  L 119.09 181.77
  L 95.75 184.28
  L 84.41 173.27
  L 108.17 168.40
  Z"
/>
<path fill="#81c07e" d="
  M 84.41 173.27
  L 95.75 184.28
  L 60.61 188.03
  L 52.99 179.69
  L 84.41 173.27
  Z"
/>
<path fill="#95c96c" d="
  M 52.99 179.69
  L 60.61 188.03
  L 49.29 189.40
  A 0.20 0.20 0.0 0 0 49.21 189.77
  L 85.23 210.71
  C 95.90 224.48 108.12 237.11 119.65 250.26
  Q 118.59 251.20 117.98 250.84
  Q 64.17 219.80 10.31 188.73
  A 0.17 0.17 0.0 0 1 10.36 188.42
  L 52.99 179.69
  Z"
/>
<path fill="#2aa8a6" d="
  M 186.95 190.22
  L 199.33 204.30
  L 181.11 214.81
  L 168.70 200.75
  L 186.95 190.22
  Z"
/>
<path fill="#4fb09b" d="
  M 168.70 200.75
  L 181.11 214.81
  L 159.92 227.04
  L 146.75 213.42
  L 168.70 200.75
  Z"
/>
<path fill="#81c07e" d="
  M 134.60 220.45
  L 147.33 234.30
  L 119.65 250.26
  C 108.12 237.11 95.90 224.48 85.23 210.71
  L 117.70 229.47
  A 1.32 1.32 0.0 0 0 119.02 229.47
  L 134.60 220.45
  Z"
/>
<path fill="#69b78e" d="
  M 146.75 213.42
  L 159.92 227.04
  L 147.33 234.30
  L 134.60 220.45
  L 146.75 213.42
  Z"
/>
</svg>
