<?xml version="1.0" encoding="utf-8"?>
<!-- Generator: Adobe Illustrator 22.1.0, SVG Export Plug-In . SVG Version: 6.00 Build 0)  -->
<svg version="1.1" id="图层_1" xmlns="http://www.w3.org/2000/svg" xmlns:xlink="http://www.w3.org/1999/xlink" x="0px" y="0px"
	 viewBox="0 0 44 44" style="enable-background:new 0 0 44 44;" xml:space="preserve">
<style type="text/css">
	.st0{fill:#FFFFFF;}
	.st1{fill:url(#SVGID_1_);}
	.st2{fill:url(#SVGID_2_);}
	.st3{fill:#1682FE;}
	.st4{fill:#60D8A4;}
	.st5{fill:#F4BB3B;}
	.st6{fill:#FF5A5A;}
	.st7{fill:#3A3A3A;}
</style>
<title>logo 2</title>
<g id="图层_2_1_">
	<g id="Layer_1">
		<circle class="st0" cx="18.5" cy="22.3" r="17.9"/>
		
			<linearGradient id="SVGID_1_" gradientUnits="userSpaceOnUse" x1="3.3527" y1="-520.0477" x2="31.2534" y2="-520.0477" gradientTransform="matrix(1 0 0 -1 0 -504.7244)">
			<stop  offset="0" style="stop-color:#D81C5C"/>
			<stop  offset="1" style="stop-color:#ED4036"/>
		</linearGradient>
		<path class="st1" d="M28.8,22.4c-1.9,1.2-4.1,1.6-6.7,0.2C22,22.5,22,22.4,22,22.3c0,0,0-0.1,0.1-0.1l3.4-2.2
			c0.1-0.1,0.2-0.3,0.1-0.4L24,17.1c-0.1-0.1-0.3-0.2-0.4-0.1L19,20c-0.2,0.1-0.4,0.1-0.6,0c-5.1-3.4-9.4-2-11.6-0.9
			c-1.1,0.6-2.2,1.5-3.1,2.4c-0.1,0.1-0.2,0.1-0.2,0v-0.1c0.4-4.9,2.4-8.9,7.5-12.2c6-3.9,15.1-2,18.9,3.9
			C32.4,17.3,31.3,20.8,28.8,22.4z"/>
		
			<linearGradient id="SVGID_2_" gradientUnits="userSpaceOnUse" x1="5.72" y1="-534.0229" x2="33.6133" y2="-534.0229" gradientTransform="matrix(1 0 0 -1 0 -504.7244)">
			<stop  offset="0" style="stop-color:#D81C5C"/>
			<stop  offset="1" style="stop-color:#ED4036"/>
		</linearGradient>
		<path class="st2" d="M33.6,23.4c-0.4,4.9-2.4,8.8-7.5,12.1c-6,3.9-15.1,1.9-18.9-4c-2.7-4.1-1.6-7.6,1-9.3c2-1.4,4.6-1.5,6.7-0.2
			c0.1,0.1,0.1,0.2,0.1,0.3c0,0,0,0.1-0.1,0.1l-3.4,2.2c-0.1,0.1-0.2,0.3-0.1,0.4l1.6,2.5c0.1,0.1,0.3,0.2,0.4,0.1l0,0l4.7-3
			c0.2-0.1,0.4-0.1,0.6,0c5.1,3.4,9.3,2,11.5,0.9c1.1-0.6,2.1-1.4,3-2.3c0.1-0.1,0.2-0.1,0.3,0C33.6,23.3,33.6,23.3,33.6,23.4z"/>
	</g>
</g>
<g>
	<circle class="st0" cx="32.4" cy="30.7" r="8.2"/>
	<g>
		<rect x="33.2" y="26.9" class="st3" width="0.9" height="1.3"/>
		<rect x="30.8" y="24.5" class="st3" width="0.9" height="1.3"/>
		<rect x="28.4" y="25.8" class="st4" width="0.9" height="1.3"/>
		<rect x="27.1" y="30.7" class="st5" width="0.9" height="3.7"/>
		<rect x="27.1" y="26.9" class="st4" width="0.9" height="3.7"/>
		<rect x="34.5" y="28.1" class="st3" width="0.9" height="1.3"/>
		<rect x="34.5" y="31.9" class="st6" width="0.9" height="1.3"/>
		<rect x="33.2" y="33.1" class="st6" width="0.9" height="1.3"/>
		<rect x="30.8" y="35.5" class="st6" width="0.9" height="1.3"/>
		<rect x="28.4" y="34.2" class="st5" width="0.9" height="1.3"/>
		<path class="st7" d="M37.7,29.4v-2.5h-1.2v-1.2H34v-1.2h-2.5v1.2H29v1.2h-1.2v7.4H29v1.2h2.5v1.2H34v-1.2h2.5v-1.2h1.2v-2.5h-2.5
			V33H34v1.2h-2.5V33h-1.2v-4.9h1.2v-1.2H34v1.2h1.2v1.2L37.7,29.4L37.7,29.4z"/>
	</g>
</g>
</svg>
