<svg xmlns="http://www.w3.org/2000/svg" xmlns:xlink="http://www.w3.org/1999/xlink" viewBox="0 0 59.46 66.54"><defs><style>.cls-1{fill:url(#linear-gradient);}.cls-2{fill:url(#linear-gradient-2);}.cls-3{fill:#1682fe;}.cls-4{fill:#60d8a4;}.cls-5{fill:#f4bb3b;}.cls-6{fill:#ff5a5a;}.cls-7{fill:#3a3a3a;}</style><linearGradient id="linear-gradient" x1="6180.51" y1="-1623.55" x2="6232.97" y2="-1623.55" gradientTransform="matrix(-0.87, 0.5, 0.5, 0.87, 6219.81, -1654.92)" gradientUnits="userSpaceOnUse"><stop offset="0" stop-color="#ea008a"/><stop offset="0.35" stop-color="#ec2167"/><stop offset="1" stop-color="#ef5a28"/></linearGradient><linearGradient id="linear-gradient-2" x1="31.75" y1="60.08" x2="31.75" y2="26.96" gradientTransform="matrix(1, 0, 0, 1, 0, 0)" xlink:href="#linear-gradient"/></defs><title>xtoken</title><g id="图层_2" data-name="图层 2"><g id="Layer_1" data-name="Layer 1"><path class="cls-1" d="M0,26.34C1.3,16.83,5.66,9.16,16,3.24c12.25-7,29.92-2.14,36.82,9.9,4.79,8.38,2.34,15.13-2.91,18.14C46.07,33.48,41.8,34,36.67,31a.47.47,0,0,1,0-.81l7-4a.6.6,0,0,0,.22-.81L41,20.18a.6.6,0,0,0-.81-.22l-9.5,5.44a1.13,1.13,0,0,1-1.22-.08c-9.63-7.15-18.2-5-22.65-2.91A24.12,24.12,0,0,0,.64,26.65.38.38,0,0,1,0,26.34Z"/><path class="cls-2" d="M35.58,54.7A12.54,12.54,0,0,1,55.9,44.84a31.29,31.29,0,0,0,3.55-11.25.31.31,0,0,0-.53-.27,24.28,24.28,0,0,1-6.3,4.35c-4.45,2.08-13,4.25-22.64-2.9a1.12,1.12,0,0,0-1.23-.09l-9.49,5.43a.58.58,0,0,1-.8-.21l-2.94-5.13a.6.6,0,0,1,.22-.81l7-4a.47.47,0,0,0,0-.81c-5.14-3.05-9.44-2.6-13.29-.39-5.24,3-7.66,9.82-2.86,18.2,5.68,9.92,18.65,15,29.9,12.53A12.41,12.41,0,0,1,35.58,54.7Z"/><rect class="cls-3" x="49.97" y="49.35" width="1.49" height="2.24"/><rect class="cls-3" x="45.7" y="45.19" width="1.49" height="2.24"/><rect class="cls-4" x="41.44" y="47.33" width="1.49" height="2.24"/><rect class="cls-5" x="39.3" y="55.86" width="1.5" height="6.4"/><rect class="cls-4" x="39.3" y="49.46" width="1.5" height="6.4"/><rect class="cls-3" x="52.09" y="51.49" width="1.49" height="2.24"/><rect class="cls-6" x="52.09" y="57.98" width="1.49" height="2.24"/><rect class="cls-6" x="49.97" y="60.12" width="1.49" height="2.24"/><rect class="cls-6" x="45.7" y="64.28" width="1.49" height="2.24"/><rect class="cls-5" x="41.44" y="62.15" width="1.49" height="2.24"/><path class="cls-7" d="M57.75,53.72V49.46H55.61V47.33H51.35V45.19H47.08v2.14H42.82v2.14H40.68V62.26h2.14V64.4h4.26v2.14h4.27V64.4h4.26V62.26h2.14V58H53.49v2.14H51.35v2.14H47.08V60.12H45V51.6H47.1V49.46h4.26V51.6H53.5v2.13h4.25Z"/></g></g></svg>